<?xml version="1.0" standalone="no"?>
<!DOCTYPE svg PUBLIC "-//W3C//DTD SVG 20010904//EN"
 "http://www.w3.org/TR/2001/REC-SVG-20010904/DTD/svg10.dtd">
<svg version="1.0" xmlns="http://www.w3.org/2000/svg"
 width="600.000000pt" height="600.000000pt" viewBox="0 0 600.000000 600.000000"
 preserveAspectRatio="xMidYMid meet">
<metadata>
Created by potrace 1.14, written by Peter Selinger 2001-2017
</metadata>
<g transform="translate(0.000000,600.000000) scale(0.100000,-0.100000)"
fill="#000000" stroke="none">
<path d="M2798 5996 c-1 -2 -37 -6 -78 -10 -41 -3 -86 -8 -100 -10 -14 -3 -43
-7 -65 -10 -79 -11 -111 -18 -220 -42 -60 -14 -119 -27 -129 -29 -81 -18 -348
-118 -481 -180 -89 -42 -283 -146 -310 -167 -5 -5 -48 -33 -95 -64 -165 -110
-306 -228 -462 -389 -135 -137 -141 -144 -188 -205 -19 -25 -39 -50 -45 -56
-5 -6 -16 -20 -23 -30 -7 -11 -35 -50 -63 -89 -27 -38 -64 -94 -82 -124 -18
-29 -41 -67 -51 -85 -41 -68 -146 -277 -146 -291 0 -8 -4 -15 -8 -15 -5 0 -9
-6 -9 -12 0 -7 -12 -38 -26 -68 -31 -67 -109 -314 -136 -430 -32 -138 -56
-280 -69 -420 -14 -152 -5 -597 13 -660 3 -8 7 -29 9 -45 24 -191 102 -487
173 -660 13 -33 32 -78 41 -100 54 -132 191 -378 291 -520 152 -218 385 -469
561 -605 24 -19 51 -41 58 -48 7 -6 44 -33 80 -59 37 -26 69 -51 70 -55 2 -5
7 -8 12 -8 5 0 36 -18 70 -41 115 -76 325 -184 490 -252 159 -66 427 -143 595
-171 55 -10 172 -26 241 -33 138 -15 613 -7 666 12 7 2 33 6 58 9 25 3 59 7
75 10 41 8 99 19 105 21 39 9 161 36 165 36 17 -1 315 108 421 154 156 67 420
214 498 275 6 5 52 40 103 77 121 90 186 147 313 273 115 116 260 282 260 299
0 6 3 11 8 11 4 0 18 17 32 38 14 20 28 39 31 42 4 3 25 34 48 70 22 36 44 70
49 75 29 36 192 350 192 370 0 7 3 15 8 17 26 12 176 485 196 623 4 23 9 52
11 65 12 61 20 121 35 260 7 74 5 491 -3 540 -2 14 -8 54 -12 90 -14 117 -20
152 -60 330 -87 391 -324 866 -596 1194 -66 79 -102 118 -206 222 -140 140
-292 265 -443 364 -58 38 -110 73 -116 77 -34 25 -382 202 -409 208 -5 1 -23
8 -40 14 -180 75 -470 151 -695 181 -41 6 -88 13 -105 16 -33 6 -501 15 -507
10z"/>
</g>
</svg>
